# xmcd
#
# Track frame offsets:
# 150
# 19152
# 34552
# 52376
# 68845
# 83203
# 99899
# 112815
# 130844
# 142496
# 158249
# 171936
# 192830
# 208860
# 232790
# 251565
#
# Disc length: 3640 seconds
#
#
# Revision: 0
# Processed by: cddbd v1.5.2PL0 Copyright (c) Steve Scherf et al.
# Submitted via: FreeRIP 2.96 
#
DISCID=dd0e3610
DTITLE=Junior and Marcelo - Junior and Marcelo
DYEAR=2006
DGENRE=Sertanejo
TTITLE0=Acordar sem você
TTITLE1=Ainda te espero
TTITLE2=Amor e prazer
TTITLE3=Cabeçadas pela vida
TTITLE4=Coração sem juizo
TTITLE5=Ela ou a pinga
TTITLE6=Fazenda Três Poderes
TTITLE7=Forró do vai e vem
TTITLE8=A marca da aliança
TTITLE9=Nóis cuchila mais num dormi
TTITLE10=A viola e o sertanejo
TTITLE11=Nunca disse que te amava
TTITLE12=Peão não chora
TTITLE13=Ponto final
TTITLE14=Preciso de você
TTITLE15=Volta pra casa
EXTD=
EXTT0=
EXTT1=
EXTT2=
EXTT3=
EXTT4=
EXTT5=
EXTT6=
EXTT7=
EXTT8=
EXTT9=
EXTT10=
EXTT11=
EXTT12=
EXTT13=
EXTT14=
EXTT15=
PLAYORDER=
